<svg xmlns="http://www.w3.org/2000/svg" xmlns:xlink="http://www.w3.org/1999/xlink" viewBox="0 0 205 60"><defs><style>.cls-1{isolation:isolate;}.cls-2{fill:url(#radial-gradient);}.cls-3{opacity:0.4;fill:url(#linear-gradient);}.cls-3,.cls-4,.cls-6{mix-blend-mode:multiply;}.cls-4{opacity:0.6;fill:url(#linear-gradient-2);}.cls-5{fill:#231f20;}.cls-6{fill:url(#linear-gradient-3);}.cls-7{fill:url(#linear-gradient-4);}.cls-8{fill:url(#linear-gradient-5);}</style><radialGradient id="radial-gradient" cx="196.9583" cy="30.1385" r="24.8531" gradientUnits="userSpaceOnUse"><stop offset="0"/><stop offset="1" stop-color="#4d4d4d"/></radialGradient><linearGradient id="linear-gradient" x1="172.221" y1="25.5485" x2="174.2307" y2="21.428" gradientUnits="userSpaceOnUse"><stop offset="0"/><stop offset="1" stop-opacity="0"/></linearGradient><linearGradient id="linear-gradient-2" x1="172.221" y1="26.314" x2="176.5797" y2="17.3774" gradientTransform="matrix(1, 0, 0, -1, 0, 61.3375)" gradientUnits="userSpaceOnUse"><stop offset="0"/><stop offset="0.145" stop-opacity="0.5786"/><stop offset="1" stop-opacity="0"/></linearGradient><linearGradient id="linear-gradient-3" x1="128.8482" y1="30.2662" x2="128.8499" y2="30.2662" gradientUnits="userSpaceOnUse"><stop offset="0.273" stop-color="#666"/><stop offset="1"/></linearGradient><linearGradient id="linear-gradient-4" x1="134.5081" y1="33.1274" x2="173.4587" y2="21.3889" gradientUnits="userSpaceOnUse"><stop offset="0.273" stop-color="#4d4d4d"/><stop offset="1"/></linearGradient><linearGradient id="linear-gradient-5" x1="181.953" y1="30.6686" x2="150.3175" y2="14.6377" gradientUnits="userSpaceOnUse"><stop offset="0" stop-color="#231f20"/><stop offset="0.1825" stop-color="#999"/><stop offset="1" stop-color="#231f20"/></linearGradient></defs><title>blackbird_logo</title><g class="cls-1"><g id="Layer_1" data-name="Layer 1"><polygon class="cls-2" points="149.535 2.956 154.624 16.707 181.424 30.276 181.424 30.295 154.624 43.737 149.535 57.488 203.609 30.3 203.609 30.272 149.535 2.956"/><polygon class="cls-3" points="203.609 30.3 203.609 30.272 149.535 2.956 154.624 16.707 181.424 30.276 181.424 30.295 203.609 30.3"/><polygon class="cls-4" points="203.609 30.272 203.609 30.3 149.535 57.616 154.624 43.864 181.424 30.295 181.424 30.276 203.609 30.272"/><path class="cls-5" d="M1.8224,39.2164V22.2818H7.298a10.5081,10.5081,0,0,1,2.7145.3068,5.2124,5.2124,0,0,1,1.8645.8792,3.4643,3.4643,0,0,1,1.08,1.3988,4.7305,4.7305,0,0,1,.3481,1.8525,3.6628,3.6628,0,0,1-.195,1.186,3.5186,3.5186,0,0,1-.5839,1.0622,4.2874,4.2874,0,0,1-.98.885,5.3326,5.3326,0,0,1-1.381.643,5.1312,5.1312,0,0,1,2.7673,1.34,3.4941,3.4941,0,0,1,.9383,2.531,4.7677,4.7677,0,0,1-.401,1.9769,4.2219,4.2219,0,0,1-1.1683,1.5279,5.5322,5.5322,0,0,1-1.8823.9916,8.4094,8.4094,0,0,1-2.543.3539H1.8224Zm2.4312-9.3933H7.1918a5.9686,5.9686,0,0,0,1.64-.2007,3.2482,3.2482,0,0,0,1.1505-.5666,2.2909,2.2909,0,0,0,.679-0.885,2.8914,2.8914,0,0,0,.2238-1.1568,2.5357,2.5357,0,0,0-.8787-2.1416,4.42,4.42,0,0,0-2.7087-.6785H4.2536v5.6292Zm0,1.7229v5.7353H7.841a5.351,5.351,0,0,0,1.6523-.2242,3.0641,3.0641,0,0,0,1.1207-.62,2.4031,2.4031,0,0,0,.6434-0.9378,3.3351,3.3351,0,0,0,.2065-1.1923,2.4831,2.4831,0,0,0-.897-2.0177,4.2077,4.2077,0,0,0-2.726-.7433H4.2536Z"/><path class="cls-5" d="M17.591,37.1631h7.4444L24.19,39.2164H15.16V22.2818H17.591V37.1631Z"/><path class="cls-5" d="M41.2044,39.2164H39.3159a0.8106,0.8106,0,0,1-.5191-0.1594,1.0123,1.0123,0,0,1-.3068-0.4187l-1.5222-3.9769H29.4505l-1.5222,3.9769a0.8509,0.8509,0,0,1-.2891.401,0.8082,0.8082,0,0,1-.5253.1772H25.2259l6.75-16.9346h2.4667ZM30.1233,32.9145H36.295l-2.5608-6.6673q-0.13-.3184-0.2655-0.7376t-0.2655-.9147q-0.13.4955-.26,0.9205t-0.2593.7438Z"/><path class="cls-5" d="M53.7791,35.6289a0.4883,0.4883,0,0,1,.3544.1532l0.9676,1.0622A7.1408,7.1408,0,0,1,52.57,38.7324a8.67,8.67,0,0,1-3.5812.6727,8.4074,8.4074,0,0,1-3.3339-.6372,7.3425,7.3425,0,0,1-2.5493-1.782,7.9414,7.9414,0,0,1-1.6283-2.7375,10.2974,10.2974,0,0,1-.5724-3.5053,9.8508,9.8508,0,0,1,.6017-3.5048,7.9225,7.9225,0,0,1,1.6994-2.7318A7.7336,7.7336,0,0,1,45.8311,22.73a8.6785,8.6785,0,0,1,3.3694-.6372,7.9419,7.9419,0,0,1,5.6407,2.16l-0.8024,1.1327a0.7638,0.7638,0,0,1-.1945.1945,0.5478,0.5478,0,0,1-.3131.0768,0.9271,0.9271,0,0,1-.5248-0.2242,7.7546,7.7546,0,0,0-.7909-0.5013,6.1834,6.1834,0,0,0-1.2216-.5018,6.2456,6.2456,0,0,0-1.8055-.2242,5.9963,5.9963,0,0,0-2.3423.4485A5.1732,5.1732,0,0,0,45.011,25.94a5.8652,5.8652,0,0,0-1.1918,2.0533,8.3036,8.3036,0,0,0-.4245,2.75,8.1319,8.1319,0,0,0,.4422,2.7793,6.0243,6.0243,0,0,0,1.2153,2.06,5.1984,5.1984,0,0,0,1.8233,1.28,5.7484,5.7484,0,0,0,2.254.4427,9.0491,9.0491,0,0,0,1.3339-.0888,5.9127,5.9127,0,0,0,1.0915-.2655,4.4208,4.4208,0,0,0,.9383-0.46,7.1969,7.1969,0,0,0,.873-0.6727,1.0356,1.0356,0,0,1,.195-0.1359A0.4614,0.4614,0,0,1,53.7791,35.6289Z"/><path class="cls-5" d="M59.12,29.6339h0.8379a1.9626,1.9626,0,0,0,.7256-0.1119,1.277,1.277,0,0,0,.5018-0.3837l5.4755-6.3014a1.4774,1.4774,0,0,1,.5191-0.4312,1.5863,1.5863,0,0,1,.6607-0.1239h2.0653l-6.3254,7.2344a2.9435,2.9435,0,0,1-.932.8024,2.3607,2.3607,0,0,1,1.1212.8965l6.5847,8.0013H68.2424a1.3808,1.3808,0,0,1-.6963-0.1359,1.2875,1.2875,0,0,1-.3894-0.3717L61.4924,32.065a1.47,1.47,0,0,0-.5138-0.425,2.049,2.049,0,0,0-.8317-0.13H59.12v7.706H56.6892V22.2818H59.12v7.3521Z"/><path class="cls-5" d="M71.9274,39.2164V22.2818h5.4755a10.5081,10.5081,0,0,1,2.7145.3068,5.2124,5.2124,0,0,1,1.8645.8792,3.4643,3.4643,0,0,1,1.08,1.3988,4.7305,4.7305,0,0,1,.3481,1.8525,3.6628,3.6628,0,0,1-.195,1.186,3.5186,3.5186,0,0,1-.5839,1.0622,4.2874,4.2874,0,0,1-.98.885,5.3326,5.3326,0,0,1-1.381.643,5.1312,5.1312,0,0,1,2.7673,1.34,3.4941,3.4941,0,0,1,.9383,2.531,4.7677,4.7677,0,0,1-.401,1.9769,4.2219,4.2219,0,0,1-1.1683,1.5279,5.5322,5.5322,0,0,1-1.8823.9916,8.4094,8.4094,0,0,1-2.543.3539H71.9274Zm2.4312-9.3933h2.9382a5.9686,5.9686,0,0,0,1.64-.2007,3.2482,3.2482,0,0,0,1.1505-.5666,2.2909,2.2909,0,0,0,.679-0.885A2.8914,2.8914,0,0,0,80.99,27.014a2.5357,2.5357,0,0,0-.8787-2.1416,4.42,4.42,0,0,0-2.7087-.6785H74.3585v5.6292Zm0,1.7229v5.7353H77.946a5.351,5.351,0,0,0,1.6523-.2242,3.0641,3.0641,0,0,0,1.1207-.62,2.4031,2.4031,0,0,0,.6434-0.9378,3.3351,3.3351,0,0,0,.2065-1.1923,2.4831,2.4831,0,0,0-.897-2.0177,4.2077,4.2077,0,0,0-2.726-.7433H74.3585Z"/><path class="cls-5" d="M88.6917,39.2164H86.249V22.2818h2.4427V39.2164Z"/><path class="cls-5" d="M94.3748,32.23v6.9862H91.9436V22.2818h4.85a10.4964,10.4964,0,0,1,2.8086.3308,5.4177,5.4177,0,0,1,1.9529.95,3.7526,3.7526,0,0,1,1.139,1.4929,5.2862,5.2862,0,0,1,.0884,3.623,4.4548,4.4548,0,0,1-.8024,1.3983,4.9753,4.9753,0,0,1-1.2864,1.0679,6.0851,6.0851,0,0,1-1.7287.6727,2.44,2.44,0,0,1,.79.7669l4.8268,6.6323h-2.1714a1.0417,1.0417,0,0,1-.9676-0.5191l-4.2486-5.936a1.2757,1.2757,0,0,0-.4365-0.4072,1.5744,1.5744,0,0,0-.7078-0.1239H94.3748Zm0-1.782h2.3366a5.7114,5.7114,0,0,0,1.7229-.2358,3.4081,3.4081,0,0,0,1.2389-.6727,2.8463,2.8463,0,0,0,.75-1.0329,3.3565,3.3565,0,0,0,.2535-1.3277,2.6566,2.6566,0,0,0-.9676-2.23,4.6924,4.6924,0,0,0-2.9147-.7553H94.3748v6.2544Z"/><path class="cls-5" d="M120.5559,30.7431a9.481,9.481,0,0,1-.6079,3.4636,7.7408,7.7408,0,0,1-1.7114,2.6789,7.5634,7.5634,0,0,1-2.6492,1.7229,9.2782,9.2782,0,0,1-3.4223.6079h-6.349V22.2818h6.349a9.21,9.21,0,0,1,3.4223.6137,7.5133,7.5133,0,0,1,4.3605,4.3961A9.4506,9.4506,0,0,1,120.5559,30.7431Zm-2.49,0a8.4339,8.4339,0,0,0-.413-2.7318,5.6327,5.6327,0,0,0-1.186-2.0417,5.1551,5.1551,0,0,0-1.8645-1.2744,6.4369,6.4369,0,0,0-2.4369-.4422h-3.9063V37.2457h3.9063a6.4277,6.4277,0,0,0,2.4369-.4427,5.1491,5.1491,0,0,0,1.8645-1.2744,5.6247,5.6247,0,0,0,1.186-2.0417A8.4718,8.4718,0,0,0,118.0657,30.7431Z"/><polygon class="cls-6" points="128.848 30.271 128.85 30.266 128.848 30.262 128.848 30.271"/><polygon class="cls-7" points="181.799 30.257 150.519 14.492 155.711 25.211 153.36 26.781 136.767 14.707 130.464 30.267 136.767 45.826 153.36 33.753 155.711 35.322 150.519 46.041 181.799 30.276 181.799 30.257"/><polygon class="cls-8" points="150.519 14.492 181.799 30.257 180.484 30.257 150.519 14.492"/><polygon points="150.519 46.041 181.799 30.276 180.484 30.257 150.519 46.041"/></g></g></svg>